<mxfile host="app.diagrams.net" agent="Mozilla/5.0 (Windows NT 10.0; Win64; x64) AppleWebKit/537.36 (KHTML, like Gecko) Chrome/138.0.0.0 Safari/537.36" version="27.1.6">
  <diagram name="Page-1" id="DYus6r99QH-YhqP8SPfU">
    <mxGraphModel dx="1314" dy="670" grid="1" gridSize="10" guides="1" tooltips="1" connect="1" arrows="1" fold="1" page="1" pageScale="1" pageWidth="827" pageHeight="1169" math="0" shadow="0">
      <root>
        <mxCell id="0" />
        <mxCell id="1" parent="0" />
        <mxCell id="x7UDAzUqGDP_pL8HJtb2-10" value="DOCKER&lt;br&gt;COMPOSE" style="shape=hexagon;perimeter=hexagonPerimeter2;whiteSpace=wrap;html=1;fixedSize=1;align=left;fillColor=#f5f5f5;strokeColor=#666666;fontColor=#333333;" parent="1" vertex="1">
          <mxGeometry x="84" y="629" width="710" height="130" as="geometry" />
        </mxCell>
        <mxCell id="HPA1k4R3t_jq5nEZBtTo-7" value="DOCKER" style="shape=hexagon;perimeter=hexagonPerimeter2;whiteSpace=wrap;html=1;fixedSize=1;align=right;fillColor=#dae8fc;strokeColor=#6c8ebf;" parent="1" vertex="1">
          <mxGeometry x="374" y="639" width="420" height="100" as="geometry" />
        </mxCell>
        <mxCell id="HPA1k4R3t_jq5nEZBtTo-8" value="DOCKER METABASE" style="shape=hexagon;perimeter=hexagonPerimeter2;whiteSpace=wrap;html=1;fixedSize=1;align=center;fillColor=#dae8fc;strokeColor=#6c8ebf;" parent="1" vertex="1">
          <mxGeometry x="149" y="649" width="206.5" height="80" as="geometry" />
        </mxCell>
        <mxCell id="HPA1k4R3t_jq5nEZBtTo-6" value="DOCKER" style="shape=hexagon;perimeter=hexagonPerimeter2;whiteSpace=wrap;html=1;fixedSize=1;align=right;fillColor=#dae8fc;strokeColor=#6c8ebf;" parent="1" vertex="1">
          <mxGeometry x="80" y="330" width="670" height="120" as="geometry" />
        </mxCell>
        <mxCell id="RvFatmFrUb0J1HVwR3kz-6" value="FLASK" style="rounded=0;whiteSpace=wrap;html=1;align=right;fillColor=#ffe6cc;strokeColor=#d79b00;" parent="1" vertex="1">
          <mxGeometry x="110" y="340" width="580" height="100" as="geometry" />
        </mxCell>
        <mxCell id="RvFatmFrUb0J1HVwR3kz-7" style="edgeStyle=orthogonalEdgeStyle;rounded=0;orthogonalLoop=1;jettySize=auto;html=1;exitX=0.5;exitY=1;exitDx=0;exitDy=0;" parent="1" source="RvFatmFrUb0J1HVwR3kz-2" target="RvFatmFrUb0J1HVwR3kz-4" edge="1">
          <mxGeometry relative="1" as="geometry" />
        </mxCell>
        <mxCell id="RvFatmFrUb0J1HVwR3kz-2" value="&lt;span style=&quot;background-color: transparent; color: light-dark(rgb(0, 0, 0), rgb(255, 255, 255));&quot;&gt;données de relevés de prix d&#39;essences des stations essences français journaliers eur/litres&lt;/span&gt;" style="rounded=0;whiteSpace=wrap;html=1;" parent="1" vertex="1">
          <mxGeometry x="199" y="265" width="195" height="50" as="geometry" />
        </mxCell>
        <mxCell id="x7UDAzUqGDP_pL8HJtb2-3" style="edgeStyle=orthogonalEdgeStyle;rounded=0;orthogonalLoop=1;jettySize=auto;html=1;exitX=0.25;exitY=1;exitDx=0;exitDy=0;entryX=0.25;entryY=0;entryDx=0;entryDy=0;" parent="1" source="RvFatmFrUb0J1HVwR3kz-3" target="RvFatmFrUb0J1HVwR3kz-5" edge="1">
          <mxGeometry relative="1" as="geometry" />
        </mxCell>
        <mxCell id="RvFatmFrUb0J1HVwR3kz-3" value="données officielles prix essences hebdomadaire&amp;nbsp;&lt;span style=&quot;background-color: transparent; color: light-dark(rgb(0, 0, 0), rgb(255, 255, 255));&quot;&gt;français eur/litres&lt;/span&gt;" style="rounded=0;whiteSpace=wrap;html=1;" parent="1" vertex="1">
          <mxGeometry x="414" y="265" width="190" height="40" as="geometry" />
        </mxCell>
        <mxCell id="RvFatmFrUb0J1HVwR3kz-4" value="API&lt;br&gt;ETL&lt;br&gt;(scheduler 1J)" style="rounded=0;whiteSpace=wrap;html=1;" parent="1" vertex="1">
          <mxGeometry x="250" y="360" width="120" height="60" as="geometry" />
        </mxCell>
        <mxCell id="RvFatmFrUb0J1HVwR3kz-5" value="API&lt;br&gt;ETL&lt;br&gt;(sheduler 7J)" style="rounded=0;whiteSpace=wrap;html=1;" parent="1" vertex="1">
          <mxGeometry x="385" y="360" width="120" height="60" as="geometry" />
        </mxCell>
        <mxCell id="RvFatmFrUb0J1HVwR3kz-23" style="edgeStyle=orthogonalEdgeStyle;rounded=0;orthogonalLoop=1;jettySize=auto;html=1;exitX=1;exitY=0.5;exitDx=0;exitDy=0;exitPerimeter=0;entryX=0.3;entryY=0.997;entryDx=0;entryDy=0;entryPerimeter=0;" parent="1" source="RvFatmFrUb0J1HVwR3kz-9" target="RvFatmFrUb0J1HVwR3kz-19" edge="1">
          <mxGeometry relative="1" as="geometry">
            <mxPoint x="540" y="420" as="targetPoint" />
            <Array as="points">
              <mxPoint x="559" y="555" />
            </Array>
          </mxGeometry>
        </mxCell>
        <mxCell id="RvFatmFrUb0J1HVwR3kz-9" value="MongoDB&lt;br&gt;Cloud" style="shape=cylinder3;whiteSpace=wrap;html=1;boundedLbl=1;backgroundOutline=1;size=15;fillColor=#f8cecc;strokeColor=#b85450;" parent="1" vertex="1">
          <mxGeometry x="260" y="515" width="60" height="80" as="geometry" />
        </mxCell>
        <mxCell id="RvFatmFrUb0J1HVwR3kz-19" value="API&lt;br&gt;Sauvegarde et restauration de bases de données&lt;br&gt;(scheduler 14J)" style="rounded=0;whiteSpace=wrap;html=1;" parent="1" vertex="1">
          <mxGeometry x="523" y="350" width="120" height="80" as="geometry" />
        </mxCell>
        <mxCell id="RvFatmFrUb0J1HVwR3kz-20" style="edgeStyle=orthogonalEdgeStyle;rounded=0;orthogonalLoop=1;jettySize=auto;html=1;exitX=0.25;exitY=1;exitDx=0;exitDy=0;entryX=0.145;entryY=0;entryDx=0;entryDy=4.35;entryPerimeter=0;" parent="1" source="RvFatmFrUb0J1HVwR3kz-4" target="RvFatmFrUb0J1HVwR3kz-9" edge="1">
          <mxGeometry relative="1" as="geometry" />
        </mxCell>
        <mxCell id="RvFatmFrUb0J1HVwR3kz-21" style="edgeStyle=orthogonalEdgeStyle;rounded=0;orthogonalLoop=1;jettySize=auto;html=1;exitX=0.25;exitY=1;exitDx=0;exitDy=0;entryX=0.5;entryY=0;entryDx=0;entryDy=0;entryPerimeter=0;" parent="1" source="RvFatmFrUb0J1HVwR3kz-5" target="RvFatmFrUb0J1HVwR3kz-9" edge="1">
          <mxGeometry relative="1" as="geometry">
            <Array as="points">
              <mxPoint x="415" y="460" />
              <mxPoint x="305" y="460" />
            </Array>
          </mxGeometry>
        </mxCell>
        <mxCell id="RvFatmFrUb0J1HVwR3kz-22" style="edgeStyle=orthogonalEdgeStyle;rounded=0;orthogonalLoop=1;jettySize=auto;html=1;exitX=0.043;exitY=1.005;exitDx=0;exitDy=0;entryX=1.002;entryY=0.252;entryDx=0;entryDy=0;entryPerimeter=0;exitPerimeter=0;" parent="1" source="RvFatmFrUb0J1HVwR3kz-19" target="RvFatmFrUb0J1HVwR3kz-9" edge="1">
          <mxGeometry relative="1" as="geometry">
            <Array as="points">
              <mxPoint x="528" y="535" />
              <mxPoint x="530" y="535" />
            </Array>
          </mxGeometry>
        </mxCell>
        <mxCell id="RvFatmFrUb0J1HVwR3kz-24" value="Service de &lt;br&gt;stockage S3" style="ellipse;shape=cloud;whiteSpace=wrap;html=1;fillColor=#f8cecc;strokeColor=#b85450;" parent="1" vertex="1">
          <mxGeometry x="560" y="530" width="120" height="80" as="geometry" />
        </mxCell>
        <mxCell id="RvFatmFrUb0J1HVwR3kz-25" style="edgeStyle=orthogonalEdgeStyle;rounded=0;orthogonalLoop=1;jettySize=auto;html=1;exitX=0.75;exitY=1;exitDx=0;exitDy=0;entryX=0.449;entryY=0.091;entryDx=0;entryDy=0;entryPerimeter=0;" parent="1" source="RvFatmFrUb0J1HVwR3kz-19" target="RvFatmFrUb0J1HVwR3kz-24" edge="1">
          <mxGeometry relative="1" as="geometry" />
        </mxCell>
        <mxCell id="HPA1k4R3t_jq5nEZBtTo-1" value="FLASK" style="rounded=0;whiteSpace=wrap;html=1;align=right;fillColor=#ffe6cc;strokeColor=#d79b00;" parent="1" vertex="1">
          <mxGeometry x="394" y="649" width="340" height="80" as="geometry" />
        </mxCell>
        <mxCell id="HPA1k4R3t_jq5nEZBtTo-4" value="API&lt;br&gt;Sauvegarde des visualisations&lt;br&gt;(scheduler 14J)" style="rounded=0;whiteSpace=wrap;html=1;" parent="1" vertex="1">
          <mxGeometry x="408" y="659" width="126" height="60" as="geometry" />
        </mxCell>
        <mxCell id="HPA1k4R3t_jq5nEZBtTo-15" style="edgeStyle=orthogonalEdgeStyle;rounded=0;orthogonalLoop=1;jettySize=auto;html=1;exitX=0;exitY=0.25;exitDx=0;exitDy=0;entryX=0.968;entryY=0.334;entryDx=0;entryDy=0;entryPerimeter=0;" parent="1" source="HPA1k4R3t_jq5nEZBtTo-4" target="HPA1k4R3t_jq5nEZBtTo-8" edge="1">
          <mxGeometry relative="1" as="geometry" />
        </mxCell>
        <mxCell id="HPA1k4R3t_jq5nEZBtTo-16" style="edgeStyle=orthogonalEdgeStyle;rounded=0;orthogonalLoop=1;jettySize=auto;html=1;exitX=1;exitY=0.75;exitDx=0;exitDy=0;entryX=0;entryY=0.75;entryDx=0;entryDy=0;" parent="1" source="HPA1k4R3t_jq5nEZBtTo-8" target="HPA1k4R3t_jq5nEZBtTo-4" edge="1">
          <mxGeometry relative="1" as="geometry" />
        </mxCell>
        <mxCell id="HPA1k4R3t_jq5nEZBtTo-18" value="API restauration des visualisations" style="rounded=0;whiteSpace=wrap;html=1;" parent="1" vertex="1">
          <mxGeometry x="549" y="659" width="130" height="60" as="geometry" />
        </mxCell>
        <mxCell id="HPA1k4R3t_jq5nEZBtTo-19" style="edgeStyle=orthogonalEdgeStyle;rounded=0;orthogonalLoop=1;jettySize=auto;html=1;exitX=0.25;exitY=0;exitDx=0;exitDy=0;entryX=0.265;entryY=0.849;entryDx=0;entryDy=0;entryPerimeter=0;" parent="1" source="HPA1k4R3t_jq5nEZBtTo-4" target="RvFatmFrUb0J1HVwR3kz-24" edge="1">
          <mxGeometry relative="1" as="geometry">
            <Array as="points">
              <mxPoint x="440" y="620" />
              <mxPoint x="592" y="620" />
            </Array>
          </mxGeometry>
        </mxCell>
        <mxCell id="HPA1k4R3t_jq5nEZBtTo-20" style="edgeStyle=orthogonalEdgeStyle;rounded=0;orthogonalLoop=1;jettySize=auto;html=1;exitX=0.5;exitY=0;exitDx=0;exitDy=0;entryX=0.502;entryY=0.989;entryDx=0;entryDy=0;entryPerimeter=0;" parent="1" source="HPA1k4R3t_jq5nEZBtTo-18" target="RvFatmFrUb0J1HVwR3kz-24" edge="1">
          <mxGeometry relative="1" as="geometry" />
        </mxCell>
        <mxCell id="HPA1k4R3t_jq5nEZBtTo-24" style="edgeStyle=orthogonalEdgeStyle;rounded=0;orthogonalLoop=1;jettySize=auto;html=1;exitX=0.8;exitY=0.8;exitDx=0;exitDy=0;exitPerimeter=0;entryX=0.806;entryY=0.064;entryDx=0;entryDy=0;entryPerimeter=0;" parent="1" source="RvFatmFrUb0J1HVwR3kz-24" target="HPA1k4R3t_jq5nEZBtTo-18" edge="1">
          <mxGeometry relative="1" as="geometry" />
        </mxCell>
        <mxCell id="x7UDAzUqGDP_pL8HJtb2-9" style="edgeStyle=orthogonalEdgeStyle;rounded=0;orthogonalLoop=1;jettySize=auto;html=1;exitX=0.75;exitY=1;exitDx=0;exitDy=0;entryX=0.678;entryY=1.002;entryDx=0;entryDy=0;entryPerimeter=0;" parent="1" source="HPA1k4R3t_jq5nEZBtTo-18" target="HPA1k4R3t_jq5nEZBtTo-8" edge="1">
          <mxGeometry relative="1" as="geometry" />
        </mxCell>
        <mxCell id="x7UDAzUqGDP_pL8HJtb2-11" value="Lecture/Ecriture" style="text;html=1;align=center;verticalAlign=middle;resizable=0;points=[];autosize=1;strokeColor=none;fillColor=none;" parent="1" vertex="1">
          <mxGeometry x="304" y="470" width="110" height="30" as="geometry" />
        </mxCell>
        <mxCell id="x7UDAzUqGDP_pL8HJtb2-12" value="Lecture" style="text;html=1;align=center;verticalAlign=middle;resizable=0;points=[];autosize=1;strokeColor=none;fillColor=none;" parent="1" vertex="1">
          <mxGeometry x="222.25" y="599" width="60" height="30" as="geometry" />
        </mxCell>
        <mxCell id="ni66Df2iKQl0QjkRm9EE-3" value="API&lt;br&gt;Pipeline de dénormalisation" style="rounded=0;whiteSpace=wrap;html=1;" parent="1" vertex="1">
          <mxGeometry x="120" y="360" width="120" height="60" as="geometry" />
        </mxCell>
        <mxCell id="ni66Df2iKQl0QjkRm9EE-4" style="edgeStyle=orthogonalEdgeStyle;rounded=0;orthogonalLoop=1;jettySize=auto;html=1;exitX=0.75;exitY=1;exitDx=0;exitDy=0;entryX=0;entryY=0.5;entryDx=0;entryDy=0;entryPerimeter=0;" parent="1" source="ni66Df2iKQl0QjkRm9EE-3" target="RvFatmFrUb0J1HVwR3kz-9" edge="1">
          <mxGeometry relative="1" as="geometry">
            <Array as="points">
              <mxPoint x="180" y="420" />
              <mxPoint x="180" y="555" />
            </Array>
          </mxGeometry>
        </mxCell>
        <mxCell id="ni66Df2iKQl0QjkRm9EE-5" style="edgeStyle=orthogonalEdgeStyle;rounded=0;orthogonalLoop=1;jettySize=auto;html=1;exitX=0;exitY=0;exitDx=0;exitDy=52.5;exitPerimeter=0;entryX=0.363;entryY=0.986;entryDx=0;entryDy=0;entryPerimeter=0;" parent="1" source="RvFatmFrUb0J1HVwR3kz-9" target="ni66Df2iKQl0QjkRm9EE-3" edge="1">
          <mxGeometry relative="1" as="geometry" />
        </mxCell>
        <mxCell id="1mjks7PZAl2FSifkfttK-1" style="edgeStyle=orthogonalEdgeStyle;rounded=0;orthogonalLoop=1;jettySize=auto;html=1;exitX=0.145;exitY=1;exitDx=0;exitDy=-4.35;exitPerimeter=0;entryX=0.314;entryY=-0.011;entryDx=0;entryDy=0;entryPerimeter=0;" edge="1" parent="1" source="RvFatmFrUb0J1HVwR3kz-9" target="HPA1k4R3t_jq5nEZBtTo-8">
          <mxGeometry relative="1" as="geometry">
            <Array as="points">
              <mxPoint x="269" y="600" />
              <mxPoint x="214" y="600" />
            </Array>
          </mxGeometry>
        </mxCell>
        <mxCell id="1mjks7PZAl2FSifkfttK-3" style="edgeStyle=orthogonalEdgeStyle;rounded=0;orthogonalLoop=1;jettySize=auto;html=1;exitX=0.625;exitY=0;exitDx=0;exitDy=0;entryX=0.667;entryY=0.938;entryDx=0;entryDy=0;entryPerimeter=0;" edge="1" parent="1" source="HPA1k4R3t_jq5nEZBtTo-8" target="RvFatmFrUb0J1HVwR3kz-9">
          <mxGeometry relative="1" as="geometry" />
        </mxCell>
      </root>
    </mxGraphModel>
  </diagram>
</mxfile>
